<svg width="183" height="200" viewBox="0 0 183 200" fill="none" xmlns="http://www.w3.org/2000/svg">
<path d="M121.007 74.4252C119.647 74.8718 117.328 66.524 123.01 59.4417C127.872 53.3791 130.196 52.5451 140.137 47.9043C140.137 47.9043 138.905 52.4002 136.488 55.1992C133.099 59.1217 131.94 62.7038 134.956 63.2318C136.332 63.4724 139.099 58.3622 144.206 53.359C148.611 49.0435 155.541 44.7414 155.548 44.8008C155.581 45.0654 143.101 56.8578 146.464 59.7243C147.218 60.3662 150.795 59.5141 152.528 57.2571C154.458 54.7412 156.861 48.7109 156.703 49.3108C156.496 50.1013 157.958 53.4827 156.852 56.8972C155.989 59.5706 152.439 62.5214 152.678 62.553C153.428 62.6529 159.56 54.005 167.109 51.0599C171.908 49.1875 179.659 49.0459 179.008 49.2147C174.873 50.2845 172.698 56.0208 169.634 59.0717C166.278 62.4131 162.252 63.0892 162.996 64.3411C164.465 66.8144 169.877 64.183 173.401 64.2735C173.75 64.2823 176.912 64.2022 176.964 64.6223C176.997 64.8869 174.177 66.2183 173.886 66.4399C171.114 68.5537 169.626 73.5682 160.653 72.6754C162.274 76.9056 169.263 73.6818 168.758 74.3291C162.417 82.4696 147.853 75.2825 139.096 75.489C136.682 75.5456 134.118 76.501 131.836 77.1781C129.19 77.9628 132.602 70.6192 121.007 74.4252Z" fill="#1F1D1D" stroke="white" stroke-miterlimit="10" stroke-linecap="round" stroke-linejoin="round"/>
<path d="M107.98 65.2022L159.991 69.0393C159.991 69.0393 158.165 83.1532 155.311 94.9896C152.458 106.826 147.52 117.986 147.52 117.986C147.52 117.986 101.376 111.454 96.6459 108.794C96.6459 108.794 101.137 101.562 103.975 90.432C106.811 79.3016 107.98 65.2022 107.98 65.2022Z" fill="#1F1D1D" stroke="white" stroke-miterlimit="10" stroke-linejoin="round"/>
<path d="M107.973 65.2026L159.983 69.0397C159.983 69.0397 159.065 76.1352 157.514 84.4832C137.311 82.7953 123.928 82.1104 106.055 80.2396C107.393 72.2069 107.973 65.2026 107.973 65.2026Z" fill="#1F1D1D" stroke="white" stroke-miterlimit="10" stroke-linejoin="round"/>
<path d="M34.3995 163.565L58.8395 119.281C58.8395 119.281 65.7756 121.626 74.0794 125.293C76.7409 126.468 79.5429 127.779 82.3021 129.192C93.6696 135.015 104.314 142.568 104.314 142.568C104.314 142.568 98.4175 151.345 92.0042 162.294C85.5911 173.243 78.6573 186.367 78.6573 186.367C78.6573 186.367 70.5582 180.81 59.4936 175.109C48.4293 169.409 34.3995 163.565 34.3995 163.565Z" fill="#1F1D1D" stroke="white" stroke-miterlimit="10" stroke-linejoin="round"/>
<path d="M34.3995 163.565L58.8395 119.281C58.8395 119.281 65.5185 121.539 73.6149 125.088C69.0668 130.974 53.6507 161.973 49.3554 170.26C42.2586 167.012 34.3995 163.565 34.3995 163.565Z" fill="#1F1D1D" stroke="white" stroke-miterlimit="10" stroke-linejoin="round"/>
<path d="M50.0531 143.854C37.4719 135.881 46.9917 121.118 46.9624 121.317C46.0215 127.686 49.3625 129.408 49.3625 129.408C49.3625 129.408 48.3843 122.547 49.1026 116.312C49.6972 111.15 51.9844 106.414 52.2039 106.386C52.3796 106.365 50.519 109.983 51.9266 116.951C52.1408 118.012 54.2563 120.789 54.0076 120.145C52.2219 115.516 62.2699 103.322 62.7302 103.485C62.9852 103.575 56.9489 115.084 61.8912 116.871C65.2094 118.071 68.2866 107.994 68.3921 108.077C68.4183 108.097 69.8536 112.445 67.2472 118.143C66.0115 120.845 71.2886 127.233 62.7105 131.55C58.6406 133.598 55.856 147.531 50.0531 143.854Z" fill="#1F1D1D" stroke="white" stroke-miterlimit="10" stroke-linecap="round" stroke-linejoin="round"/>
</svg>
